<svg width="44" height="41" viewBox="0 0 44 41" fill="none" xmlns="http://www.w3.org/2000/svg">
<path d="M23.088 12.056C23.088 4.944 17.824 0.911999 12 0.911999C6.176 0.911999 0.912 4.944 0.912 12.112V29.248C0.912 36.416 6.176 40.448 12 40.448C17.824 40.448 23.088 36.416 23.088 29.304V12.056ZM18.272 12.056V29.304C18.272 33.448 15.472 36.08 12 36.08C8.472 36.08 5.672 33.448 5.672 29.304V12.056C5.672 7.912 8.472 5.28 12 5.28C15.472 5.28 18.272 7.912 18.272 12.056ZM43.304 1.36H38.488L32.944 5.616V10.88L38.488 6.904V40H43.304V1.36Z" fill="#EE1F7C"/>
</svg>
