<svg width="51" height="41" viewBox="0 0 51 41" fill="none" xmlns="http://www.w3.org/2000/svg">
<path d="M22.4912 12.056C22.4912 4.944 17.2272 0.911999 11.4032 0.911999C5.57919 0.911999 0.315187 4.944 0.315187 12.112V29.248C0.315187 36.416 5.57919 40.448 11.4032 40.448C17.2272 40.448 22.4912 36.416 22.4912 29.304V12.056ZM17.6752 12.056V29.304C17.6752 33.448 14.8752 36.08 11.4032 36.08C7.87519 36.08 5.07519 33.448 5.07519 29.304V12.056C5.07519 7.912 7.87519 5.28 11.4032 5.28C14.8752 5.28 17.6752 7.912 17.6752 12.056ZM50.2112 35.632H33.8592L44.4992 22.752C46.9632 19.784 50.3232 16.088 50.3232 11.496C50.3232 4.888 45.3952 0.911999 39.2352 0.911999C33.1872 0.911999 28.1472 4.888 28.1472 11.272H32.9072C33.0192 7.296 35.7632 5.224 39.2352 5.224C42.4272 5.224 45.5072 7.24 45.5072 11.272C45.5072 14.184 43.7712 16.816 41.1392 19.896L27.5312 35.968V40H50.2112V35.632Z" fill="#EE1F7C"/>
</svg>
