<svg width="52" height="41" viewBox="0 0 52 41" fill="none" xmlns="http://www.w3.org/2000/svg">
<path d="M23.088 12.056C23.088 4.944 17.824 0.911999 12 0.911999C6.176 0.911999 0.912 4.944 0.912 12.112V29.248C0.912 36.416 6.176 40.448 12 40.448C17.824 40.448 23.088 36.416 23.088 29.304V12.056ZM18.272 12.056V29.304C18.272 33.448 15.472 36.08 12 36.08C8.472 36.08 5.672 33.448 5.672 29.304V12.056C5.672 7.912 8.472 5.28 12 5.28C15.472 5.28 18.272 7.912 18.272 12.056ZM36.416 22.248H38.824C43.976 22.248 46.664 24.992 46.664 29.584C46.664 33.28 43.864 36.08 40.224 36.08C35.632 36.08 33.504 33.448 33 30.312H28.296C28.688 36.136 32.832 40.448 40.224 40.448C47.056 40.448 51.48 35.408 51.48 29.472C51.48 24.544 48.904 21.464 45.152 19.952C48.68 18.272 50.92 15.136 50.92 11.16C50.92 5.224 46.272 0.911999 39.832 0.911999C34.064 0.911999 28.8 4.664 28.8 10.768H33.504C33.616 7.632 36.192 5.224 39.832 5.224C43.64 5.224 46.104 8.024 46.104 11.048C46.104 15.248 43.92 17.88 38.824 17.88H36.416V22.248Z" fill="#EE1F7C"/>
</svg>
