<svg width="52" height="41" viewBox="0 0 52 41" fill="none" xmlns="http://www.w3.org/2000/svg">
<path d="M23.088 12.056C23.088 4.944 17.824 0.911999 12 0.911999C6.176 0.911999 0.912 4.944 0.912 12.112V29.248C0.912 36.416 6.176 40.448 12 40.448C17.824 40.448 23.088 36.416 23.088 29.304V12.056ZM18.272 12.056V29.304C18.272 33.448 15.472 36.08 12 36.08C8.472 36.08 5.672 33.448 5.672 29.304V12.056C5.672 7.912 8.472 5.28 12 5.28C15.472 5.28 18.272 7.912 18.272 12.056ZM39.888 18.608C44.48 18.608 46.384 21.912 46.384 27.96C46.384 33.784 43.864 36.08 39.888 36.08C36.752 36.08 34.512 34.176 33.784 30.928H29.08C29.472 36.248 33.896 40.448 39.888 40.448C47.28 40.448 51.2 35.576 51.2 27.96C51.2 19.28 47.952 13.792 40.784 13.792C37.816 13.792 35.856 14.912 34.624 16.312V6.176H49.576V1.36H29.976V21.464H34.4C35.464 19.952 37.256 18.608 39.888 18.608Z" fill="#EE1F7C"/>
</svg>
