<svg width="24" height="24" viewBox="0 0 24 24" fill="none" xmlns="http://www.w3.org/2000/svg">
<path d="M19.3627 9.86332C19.4475 9.8604 19.5319 9.87456 19.611 9.90496C19.6901 9.93536 19.7623 9.98138 19.8233 10.0403C19.8842 10.0992 19.9327 10.1697 19.9658 10.2478C19.9989 10.3258 20.016 10.4097 20.016 10.4944C20.016 10.5792 19.9989 10.6631 19.9658 10.7411C19.9327 10.8192 19.8842 10.8897 19.8233 10.9486C19.7623 11.0075 19.6901 11.0535 19.611 11.0839C19.5319 11.1143 19.4475 11.1285 19.3627 11.1256H17.6085V12.2506H19.3627C19.448 12.2464 19.5331 12.2596 19.6131 12.2893C19.6931 12.3191 19.7662 12.3648 19.828 12.4236C19.8897 12.4824 19.9389 12.5532 19.9725 12.6316C20.0062 12.7101 20.0235 12.7945 20.0235 12.8798C20.0235 12.9651 20.0062 13.0496 19.9725 13.128C19.9389 13.2064 19.8897 13.2772 19.828 13.336C19.7662 13.3949 19.6931 13.4406 19.6131 13.4703C19.5331 13.5 19.448 13.5132 19.3627 13.5091H16.98C16.8134 13.5085 16.6539 13.4419 16.5362 13.324C16.4186 13.2061 16.3524 13.0464 16.3522 12.8798V8.10982C16.3522 7.76257 16.6335 7.47757 16.98 7.47757H19.3673C19.5292 7.48594 19.6817 7.55629 19.7932 7.67404C19.9047 7.7918 19.9666 7.94794 19.9662 8.1101C19.9657 8.27227 19.9028 8.42804 19.7906 8.54513C19.6784 8.66222 19.5255 8.73166 19.3635 8.73907H17.6092V9.86407L19.3627 9.86332ZM15.5123 12.8791C15.5109 13.0461 15.4436 13.2058 15.325 13.3235C15.2065 13.4412 15.0463 13.5074 14.8793 13.5076C14.7803 13.5085 14.6826 13.4865 14.5937 13.4431C14.5048 13.3998 14.4272 13.3363 14.367 13.2578L11.9257 9.93757V12.8783C11.9257 13.0452 11.8595 13.2053 11.7414 13.3233C11.6234 13.4413 11.4634 13.5076 11.2965 13.5076C11.1296 13.5076 10.9696 13.4413 10.8516 13.3233C10.7335 13.2053 10.6672 13.0452 10.6672 12.8783V8.10832C10.6672 7.83907 10.8435 7.59757 11.097 7.51132C11.1596 7.4892 11.2256 7.47829 11.292 7.47907C11.487 7.47907 11.667 7.58482 11.7878 7.73332L14.2485 11.0611V8.10832C14.2485 7.76107 14.5297 7.47607 14.8778 7.47607C15.2257 7.47607 15.5107 7.76107 15.5107 8.10832L15.5123 12.8791ZM9.77025 12.8791C9.76946 13.0464 9.70239 13.2065 9.58375 13.3245C9.4651 13.4424 9.30454 13.5085 9.13725 13.5083C8.9712 13.5069 8.81242 13.4401 8.69543 13.3222C8.57843 13.2044 8.51269 13.0451 8.5125 12.8791V8.10907C8.5125 7.76182 8.79375 7.47682 9.14175 7.47682C9.489 7.47682 9.771 7.76182 9.771 8.10907L9.77025 12.8791ZM7.305 13.5083H4.91775C4.75064 13.5079 4.59042 13.4416 4.4719 13.3238C4.35339 13.206 4.28613 13.0462 4.28475 12.8791V8.10907C4.28475 7.76182 4.56975 7.47682 4.91775 7.47682C5.26575 7.47682 5.547 7.76182 5.547 8.10907V12.2498H7.305C7.47189 12.2498 7.63194 12.3161 7.74995 12.4341C7.86795 12.5521 7.93425 12.7122 7.93425 12.8791C7.93425 13.046 7.86795 13.206 7.74995 13.324C7.63194 13.442 7.47189 13.5083 7.305 13.5083ZM24 10.3118C24 4.94107 18.6128 0.570068 12 0.570068C5.38725 0.570068 0 4.94107 0 10.3118C0 15.1246 4.26975 19.1558 10.035 19.9216C10.4257 20.0033 10.9567 20.1796 11.094 20.5118C11.2148 20.8118 11.172 21.2768 11.133 21.5941L10.9688 22.6133C10.9215 22.9141 10.7265 23.7976 12.0157 23.2583C13.3088 22.7191 18.9338 19.1806 21.453 16.2811C23.1758 14.3948 24 12.4568 24 10.3118Z" fill="white"/>
</svg>
