<svg width="23" height="19" viewBox="0 0 23 19" fill="none" xmlns="http://www.w3.org/2000/svg">
<path d="M22.706 2.19635C21.871 2.56635 20.974 2.81635 20.031 2.92935C21.004 2.34715 21.7319 1.43082 22.079 0.351354C21.1648 0.894344 20.1643 1.27655 19.121 1.48135C18.4194 0.732219 17.4901 0.23568 16.4773 0.0688283C15.4646 -0.0980238 14.4251 0.0741458 13.5202 0.558607C12.6154 1.04307 11.8958 1.81272 11.4732 2.74806C11.0505 3.6834 10.9485 4.7321 11.183 5.73135C9.33069 5.63835 7.51863 5.1569 5.86442 4.31826C4.21022 3.47961 2.75084 2.30252 1.581 0.863354C1.181 1.55335 0.951 2.35335 0.951 3.20535C0.950554 3.97235 1.13943 4.7276 1.50088 5.40409C1.86232 6.08058 2.38516 6.65739 3.023 7.08335C2.28328 7.05982 1.55987 6.85994 0.913 6.50035V6.56035C0.912925 7.6361 1.28503 8.67873 1.96618 9.51135C2.64733 10.344 3.59557 10.9153 4.65 11.1284C3.96378 11.3141 3.24434 11.3414 2.546 11.2084C2.8435 12.134 3.423 12.9434 4.20337 13.5233C4.98374 14.1032 5.92592 14.4245 6.898 14.4424C5.24783 15.7378 3.20989 16.4404 1.112 16.4374C0.740381 16.4375 0.369076 16.4158 0 16.3724C2.12948 17.7415 4.60834 18.4682 7.14 18.4654C15.71 18.4654 20.395 11.3674 20.395 5.21135C20.395 5.01135 20.39 4.80935 20.381 4.60935C21.2923 3.95033 22.0789 3.13425 22.704 2.19935L22.706 2.19635Z" fill="#333333"/>
</svg>
