<svg width="25" height="17" viewBox="0 0 25 17" fill="none" xmlns="http://www.w3.org/2000/svg">
<path d="M24.2062 2.51371C24.0703 2.02898 23.8056 1.59013 23.4402 1.24381C23.0645 0.886844 22.604 0.631496 22.1022 0.501871C20.2242 0.0069115 12.7002 0.00691161 12.7002 0.00691161C9.56351 -0.0287728 6.42761 0.128176 3.31018 0.476873C2.80837 0.616075 2.34875 0.877127 1.97218 1.23681C1.60218 1.59278 1.33418 2.03175 1.19418 2.51271C0.857877 4.3243 0.694476 6.16375 0.706184 8.00626C0.694184 9.84711 0.857184 11.686 1.19418 13.4998C1.33118 13.9788 1.59818 14.4157 1.96918 14.7687C2.34018 15.1217 2.80218 15.3767 3.31018 15.5116C5.21318 16.0056 12.7002 16.0056 12.7002 16.0056C15.8408 16.0413 18.9807 15.8844 22.1022 15.5356C22.604 15.406 23.0645 15.1507 23.4402 14.7937C23.8102 14.4407 24.0732 14.0018 24.2052 13.5238C24.5503 11.7129 24.7181 9.8727 24.7062 8.02926C24.7321 6.17801 24.5646 4.32912 24.2062 2.51271V2.51371ZM10.3082 11.43V4.58354L16.5682 8.00726L10.3082 11.43Z" fill="#333333"/>
</svg>
